<?xml version="1.0" encoding="UTF-8" standalone="no"?>
<!DOCTYPE svg PUBLIC "-//W3C//DTD SVG 1.1//EN" "http://www.w3.org/Graphics/SVG/1.1/DTD/svg11.dtd">
<svg width="100%" height="100%" viewBox="0 0 28 23" version="1.1" xmlns="http://www.w3.org/2000/svg" xmlns:xlink="http://www.w3.org/1999/xlink" xml:space="preserve" xmlns:serif="http://www.serif.com/" style="fill-rule:evenodd;clip-rule:evenodd;stroke-linejoin:round;stroke-miterlimit:2;">
    <g id="Celebrity-Influencer-Copy">
        <g id="_426936216">
            <path id="Path" d="M20.962,12.632L23.121,13.878C23.155,13.897 23.155,13.946 23.121,13.965L22.335,14.419C22.302,14.438 22.262,14.438 22.229,14.419L20.07,13.173C20.036,13.154 20.036,13.105 20.07,13.086L20.856,12.632C20.889,12.613 20.929,12.613 20.962,12.632Z" style="fill:rgb(209,223,230);fill-rule:nonzero;"/>
            <path id="Path1" serif:id="Path" d="M21.876,12.632L22.217,12.829C22.256,12.852 22.305,12.852 22.344,12.829L23.143,12.368C23.166,12.355 23.166,12.321 23.143,12.308L22.801,12.111C22.762,12.088 22.713,12.088 22.674,12.111L21.876,12.572C21.853,12.585 21.853,12.619 21.876,12.632Z" style="fill:rgb(209,223,230);fill-rule:nonzero;"/>
            <path id="Path2" serif:id="Path" d="M20.5,11.309L21.297,11.769C21.34,11.794 21.254,11.794 21.297,11.769L22.234,11.309C22.255,11.297 22.255,11.266 22.234,11.254L21.437,10.794C21.394,10.769 21.341,10.769 21.298,10.794L20.501,11.254C20.48,11.266 20.48,11.297 20.501,11.309L20.5,11.309Z" style="fill:rgb(209,223,230);fill-rule:nonzero;"/>
            <path id="Path3" serif:id="Path" d="M23.243,14.422L24.515,13.688C24.547,13.669 24.587,13.669 24.619,13.688L25.891,14.422C25.912,14.434 25.912,14.465 25.891,14.477L24.62,15.211C24.588,15.23 24.548,15.23 24.516,15.211L23.244,14.476C23.223,14.464 23.223,14.433 23.244,14.421L23.243,14.422Z" style="fill:rgb(209,223,230);fill-rule:nonzero;"/>
            <path id="Path4" serif:id="Path" d="M24.168,16.528L25.893,15.532C25.922,15.515 25.958,15.515 25.986,15.532L26.796,16C26.822,16.015 26.822,16.052 26.796,16.066L25.071,17.062C25.042,17.079 25.006,17.079 24.978,17.062L24.168,16.594C24.142,16.579 24.142,16.542 24.168,16.528Z" style="fill:rgb(209,223,230);fill-rule:nonzero;"/>
            <path id="Path5" serif:id="Path" d="M15.302,19.535L15.06,19.674C15.017,19.699 15.018,19.76 15.06,19.784L16.673,20.714C16.748,20.757 16.84,20.757 16.915,20.714L17.155,20.575C17.197,20.55 17.197,20.489 17.155,20.465L15.543,19.534C15.468,19.491 15.376,19.491 15.301,19.534L15.302,19.535Z" style="fill:rgb(209,223,230);fill-rule:nonzero;"/>
            <path id="Path6" serif:id="Path" d="M16.412,21.534L18.037,20.596C18.117,20.55 18.214,20.55 18.294,20.596L19.46,21.27C19.494,21.29 19.494,21.338 19.46,21.358L17.836,22.296C17.757,22.342 17.659,22.342 17.579,22.296L16.412,21.622C16.378,21.602 16.378,21.554 16.412,21.534Z" style="fill:rgb(209,223,230);fill-rule:nonzero;"/>
            <path id="Path7" serif:id="Path" d="M15.055,20.838L15.354,21.01C15.384,21.027 15.384,21.071 15.354,21.088L15.055,21.261C14.999,21.293 14.93,21.294 14.874,21.261L14.575,21.088C14.545,21.071 14.545,21.027 14.575,21.01L14.874,20.837C14.93,20.805 14.999,20.805 15.055,20.837L15.055,20.838Z" style="fill:rgb(209,223,230);fill-rule:nonzero;"/>
            <path id="Path8" serif:id="Path" d="M20.07,21.62L20.801,22.042C20.868,22.081 20.951,22.081 21.018,22.042L21.749,21.62C21.782,21.601 21.782,21.553 21.749,21.534L21.017,21.112C20.95,21.073 20.867,21.073 20.8,21.112L20.069,21.534C20.036,21.553 20.036,21.601 20.069,21.62L20.07,21.62Z" style="fill:rgb(209,223,230);fill-rule:nonzero;"/>
            <path id="Path9" serif:id="Path" d="M25.109,18.722L25.855,19.153C25.907,19.183 25.971,19.183 26.022,19.153L27.225,18.459C27.263,18.437 27.263,18.382 27.225,18.361L26.479,17.93C26.427,17.9 26.363,17.9 26.312,17.93L25.109,18.624C25.071,18.646 25.071,18.701 25.109,18.722Z" style="fill:rgb(209,223,230);fill-rule:nonzero;"/>
            <path id="Path10" serif:id="Path" d="M26.006,17.128L26.327,17.313C26.369,17.338 26.422,17.338 26.464,17.313L26.785,17.128C26.815,17.111 26.815,17.067 26.785,17.05L26.464,16.865C26.421,16.84 26.369,16.84 26.327,16.865L26.006,17.05C25.976,17.067 25.976,17.111 26.006,17.128Z" style="fill:rgb(209,223,230);fill-rule:nonzero;"/>
            <path id="Path11" serif:id="Path" d="M22.281,17.087L16.33,13.651C16.13,13.535 16.13,13.246 16.33,13.13L18.674,11.777C18.854,11.673 18.854,11.413 18.674,11.309L14.403,8.843C14.184,8.717 13.915,8.717 13.697,8.843L3.948,14.472C3.764,14.578 3.764,14.844 3.948,14.951L8.186,17.396C8.42,17.531 8.707,17.531 8.941,17.396L11.311,16.028C11.592,15.866 11.937,15.866 12.218,16.028L18.166,19.463L22.281,17.087Z" style="fill:rgb(230,237,241);fill-rule:nonzero;"/>
            <path id="Path12" serif:id="Path" d="M4.463,14.703L13.698,9.371C13.917,9.245 14.186,9.245 14.405,9.371L17.761,11.309C17.941,11.413 17.941,11.673 17.761,11.777L15.379,13.152C15.195,13.258 15.195,13.523 15.379,13.629L21.367,16.982L21.367,17.087L18.166,18.935L12.103,15.435C11.894,15.314 11.636,15.314 11.427,15.435L8.847,16.925C8.671,17.026 8.455,17.026 8.279,16.925L4.463,14.722C4.456,14.718 4.456,14.708 4.463,14.705L4.463,14.703Z" style="fill:rgb(164,170,193);fill-rule:nonzero;"/>
            <path id="Path13" serif:id="Path" d="M4.463,14.633L13.698,9.301C13.917,9.175 14.186,9.175 14.405,9.301L17.761,11.239C17.941,11.343 17.941,11.603 17.761,11.707L15.379,13.082C15.195,13.188 15.195,13.453 15.379,13.559L21.367,16.912L21.367,17.017L18.166,18.865L12.103,15.365C11.894,15.244 11.636,15.244 11.427,15.365L8.847,16.855C8.671,16.956 8.455,16.956 8.279,16.855L4.463,14.652C4.456,14.648 4.456,14.638 4.463,14.635L4.463,14.633Z" style="fill:rgb(209,223,230);fill-rule:nonzero;"/>
            <path id="Path14" serif:id="Path" d="M3.031,11.42L11.815,6.349C11.926,6.285 11.994,6.167 11.994,6.038L11.994,0.121C11.994,0.028 11.894,-0.03 11.813,0.017L3.029,5.088C2.918,5.152 2.85,5.27 2.85,5.399L2.85,11.316C2.85,11.409 2.95,11.467 3.031,11.42Z" style="fill:rgb(159,193,208);fill-rule:nonzero;"/>
            <path id="Path15" serif:id="Path" d="M3.171,11.49L11.955,6.419C12.066,6.355 12.134,6.237 12.134,6.108L12.134,0.191C12.134,0.098 12.034,0.04 11.953,0.087L3.169,5.158C3.058,5.222 2.99,5.34 2.99,5.469L2.99,11.386C2.99,11.479 3.09,11.537 3.171,11.49Z" style="fill:rgb(209,223,230);fill-rule:nonzero;"/>
            <path id="Path16" serif:id="Path" d="M3.446,5.526L8.476,2.622L8.477,6.317L3.446,9.222L3.446,5.526Z" style="fill:rgb(245,247,248);fill-rule:nonzero;"/>
            <path id="Path17" serif:id="Path" d="M8.934,2.357L10.305,1.565L10.305,3.149L8.934,3.941L8.934,2.357Z" style="fill:rgb(245,247,248);fill-rule:nonzero;"/>
            <path id="Path18" serif:id="Path" d="M8.934,4.471L10.305,3.678L10.305,5.262L8.934,6.055L8.934,4.471Z" style="fill:rgb(245,247,248);fill-rule:nonzero;"/>
            <path id="Path19" serif:id="Path" d="M7.297,7.526L8.669,6.734C8.786,6.666 8.933,6.751 8.933,6.887C8.933,7.025 8.859,7.152 8.74,7.221L7.368,8.013C7.25,8.081 7.103,7.996 7.104,7.86C7.104,7.722 7.178,7.596 7.297,7.527L7.297,7.526Z" style="fill:rgb(245,247,248);fill-rule:nonzero;"/>
            <g id="Group" transform="matrix(1,0,0,1,10.619,1.197)">
                <path id="Path20" serif:id="Path" d="M0.955,0.086L0.035,0.617C0.016,0.628 0,0.619 0,0.597C0,0.575 0.016,0.547 0.035,0.536L0.955,0.005C0.974,-0.006 0.99,0.003 0.99,0.025C0.99,0.047 0.974,0.075 0.955,0.086Z" style="fill:rgb(245,247,248);fill-rule:nonzero;"/>
                <path id="Path21" serif:id="Path" d="M0.955,0.47L0.035,1.001C0.016,1.012 0,1.003 0,0.981C0,0.959 0.016,0.931 0.035,0.92L0.955,0.389C0.974,0.378 0.99,0.387 0.99,0.409C0.99,0.431 0.974,0.459 0.955,0.47Z" style="fill:rgb(245,247,248);fill-rule:nonzero;"/>
                <path id="Path22" serif:id="Path" d="M0.955,0.853L0.035,1.384C0.016,1.395 0,1.386 0,1.364C0,1.342 0.016,1.314 0.035,1.303L0.955,0.772C0.974,0.761 0.99,0.77 0.99,0.792C0.99,0.814 0.974,0.842 0.955,0.853Z" style="fill:rgb(245,247,248);fill-rule:nonzero;"/>
                <path id="Path23" serif:id="Path" d="M0.955,2.184L0.035,2.715C0.016,2.726 0,2.717 0,2.695C0,2.673 0.016,2.645 0.035,2.634L0.955,2.103C0.974,2.092 0.99,2.101 0.99,2.123C0.99,2.145 0.974,2.173 0.955,2.184Z" style="fill:rgb(245,247,248);fill-rule:nonzero;"/>
                <path id="Path24" serif:id="Path" d="M0.955,2.567L0.035,3.098C0.016,3.109 0,3.1 0,3.078C0,3.056 0.016,3.028 0.035,3.017L0.955,2.486C0.974,2.475 0.99,2.484 0.99,2.506C0.99,2.528 0.974,2.556 0.955,2.567Z" style="fill:rgb(245,247,248);fill-rule:nonzero;"/>
                <path id="Path25" serif:id="Path" d="M0.955,2.951L0.035,3.482C0.016,3.493 0,3.484 0,3.462C0,3.44 0.016,3.412 0.035,3.401L0.955,2.87C0.974,2.859 0.99,2.868 0.99,2.89C0.99,2.912 0.974,2.94 0.955,2.951Z" style="fill:rgb(245,247,248);fill-rule:nonzero;"/>
            </g>
            <g id="Group1" serif:id="Group" transform="matrix(1,0,0,1,6.46802,8.80903)">
                <path id="Path26" serif:id="Path" d="M0.222,0.54C0.174,0.568 0.132,0.593 0.091,0.616C0.009,0.662 -0.017,0.637 0.011,0.532C0.034,0.446 0.062,0.36 0.093,0.273C0.101,0.251 0.125,0.22 0.142,0.209C0.213,0.164 0.284,0.125 0.354,0.085C0.389,0.065 0.408,0.076 0.408,0.116C0.409,0.2 0.41,0.285 0.407,0.371C0.406,0.392 0.396,0.422 0.383,0.444C0.343,0.517 0.3,0.589 0.258,0.661C0.238,0.696 0.213,0.725 0.188,0.718C0.164,0.712 0.176,0.676 0.187,0.645C0.197,0.613 0.208,0.582 0.221,0.54L0.222,0.54Z" style="fill:rgb(247,36,36);fill-rule:nonzero;"/>
                <path id="Path27" serif:id="Path" d="M0.44,0.212C0.44,0.168 0.441,0.124 0.44,0.08C0.439,0.036 0.469,0.029 0.492,0.015C0.516,0.001 0.54,-0.013 0.54,0.027C0.539,0.114 0.539,0.2 0.54,0.286C0.54,0.332 0.51,0.34 0.485,0.355C0.457,0.372 0.438,0.377 0.44,0.339C0.442,0.296 0.44,0.254 0.44,0.212Z" style="fill:rgb(247,36,36);fill-rule:nonzero;"/>
            </g>
            <g id="Group2" serif:id="Group" transform="matrix(1,0,0,1,4.63802,9.86504)">
                <path id="Path28" serif:id="Path" d="M0.313,0.18C0.369,0.148 0.414,0.121 0.46,0.095C0.517,0.062 0.547,0.076 0.53,0.147C0.505,0.251 0.47,0.358 0.434,0.464C0.428,0.482 0.401,0.507 0.383,0.518C0.319,0.558 0.255,0.594 0.191,0.63C0.143,0.657 0.127,0.648 0.126,0.594C0.125,0.517 0.124,0.441 0.127,0.362C0.128,0.338 0.136,0.305 0.15,0.28C0.191,0.203 0.236,0.129 0.28,0.053C0.286,0.044 0.292,0.031 0.299,0.026C0.315,0.015 0.336,-0.002 0.346,0.001C0.355,0.004 0.36,0.029 0.356,0.047C0.347,0.086 0.332,0.126 0.315,0.179L0.313,0.18Z" style="fill:rgb(53,248,39);fill-rule:nonzero;"/>
                <path id="Path29" serif:id="Path" d="M0.101,0.509C0.101,0.551 0.1,0.594 0.101,0.636C0.103,0.676 0.079,0.69 0.052,0.704C0.026,0.718 0,0.735 0.001,0.692C0.002,0.605 0.002,0.519 0.001,0.434C0,0.391 0.026,0.382 0.052,0.368C0.079,0.353 0.103,0.339 0.101,0.382C0.099,0.425 0.101,0.467 0.101,0.509Z" style="fill:rgb(53,248,39);fill-rule:nonzero;"/>
            </g>
            <path id="Path30" serif:id="Path" d="M12.738,12.482C12.738,12.482 12.756,13.077 12.917,13.226C13.078,13.375 13.078,13.315 13.078,13.375C13.078,13.435 12.703,13.429 12.572,13.286C12.441,13.143 12.328,12.983 12.328,12.983C12.328,12.983 12.489,12.388 12.542,12.394C12.596,12.4 12.738,12.483 12.738,12.483L12.738,12.482Z" style="fill:rgb(33,245,224);fill-rule:nonzero;"/>
            <path id="Path31" serif:id="Path" d="M13.405,12.179C13.405,12.179 13.286,12.56 13.298,12.756C13.31,12.952 13.482,13.143 13.471,13.184C13.459,13.226 13.191,13.178 13.132,13.059C13.072,12.94 13.12,12.88 13.037,12.863C12.954,12.845 12.853,12.643 12.894,12.631C12.936,12.619 13.153,12.262 13.178,12.179C13.203,12.096 13.413,12.096 13.406,12.179L13.405,12.179Z" style="fill:rgb(33,245,224);fill-rule:nonzero;"/>
            <path id="Path32" serif:id="Path" d="M14.577,10.116C14.578,10.259 14.538,10.437 14.327,10.411C14.165,10.392 14.04,9.937 13.952,9.461C13.863,8.979 13.814,8.475 13.805,8.376C13.823,8.529 13.972,9.643 14.559,9.947C14.559,9.947 14.576,10.024 14.577,10.116Z" style="fill:rgb(181,234,215);fill-rule:nonzero;"/>
            <path id="Path33" serif:id="Path" d="M14.577,10.116C14.578,10.259 14.538,10.437 14.327,10.411C14.165,10.392 14.04,9.937 13.952,9.461C13.964,9.434 13.978,9.409 13.996,9.386C13.996,9.386 14.201,10.316 14.577,10.116Z" style="fill:rgb(140,208,197);fill-rule:nonzero;"/>
            <path id="Path34" serif:id="Path" d="M14.581,10.813C14.55,11.057 14.459,11.345 14.208,11.369C13.959,11.392 13.885,10.327 13.868,9.397C13.855,8.683 13.875,8.049 13.875,8.049C13.875,8.049 13.857,10.227 14.595,10.471C14.595,10.471 14.605,10.63 14.581,10.814L14.581,10.813Z" style="fill:rgb(181,234,215);fill-rule:nonzero;"/>
            <path id="Path35" serif:id="Path" d="M14.581,10.813C14.55,11.057 14.459,11.345 14.208,11.369C13.959,11.392 13.885,10.327 13.868,9.397C13.872,9.392 13.877,9.389 13.881,9.385C13.881,9.385 14.009,10.763 14.577,10.805L14.581,10.812L14.581,10.813Z" style="fill:rgb(140,208,197);fill-rule:nonzero;"/>
            <path id="Path36" serif:id="Path" d="M12.68,8.562C12.477,12.52 11.187,12.031 10.549,11.531C10.333,11.362 10.192,11.192 10.192,11.192C10.055,10.808 10.222,10.451 10.4,10.213C10.53,10.039 10.666,9.929 10.691,9.919C12.131,10.05 12.68,8.563 12.68,8.563L12.68,8.562Z" style="fill:rgb(181,234,215);fill-rule:nonzero;"/>
            <path id="Path37" serif:id="Path" d="M12.265,9.386C12.17,9.979 10.994,11.117 10.549,11.53C10.333,11.361 10.192,11.191 10.192,11.191C10.055,10.807 10.222,10.45 10.4,10.212C10.926,11.022 12.265,9.386 12.265,9.386Z" style="fill:rgb(140,208,197);fill-rule:nonzero;"/>
            <path id="Path38" serif:id="Path" d="M11.9,11.118C11.043,12.333 9.87,13.059 9.87,13.059C9.147,12.481 9.348,11.83 9.587,11.436C9.722,11.213 9.869,11.072 9.869,11.072C12.344,10.394 12.769,8.259 12.769,8.259C12.865,9.369 12.446,10.343 11.899,11.118L11.9,11.118Z" style="fill:rgb(181,234,215);fill-rule:nonzero;"/>
            <path id="Path39" serif:id="Path" d="M12.385,9.53C12.261,10.061 12.098,10.609 11.901,11.119C11.044,12.334 9.871,13.06 9.871,13.06C9.148,12.482 9.349,11.831 9.588,11.437C9.588,11.437 9.628,12.054 10.325,11.863C11.672,11.495 12.363,9.59 12.385,9.53Z" style="fill:rgb(140,208,197);fill-rule:nonzero;"/>
            <path id="Path40" serif:id="Path" d="M13.907,5.527C13.907,5.527 13.809,5.236 13.509,5.237C13.208,5.238 13.019,5.435 12.924,5.725C12.869,5.892 12.657,6.213 12.436,6.539C12.272,6.781 12.104,7.025 11.992,7.209C11.73,7.641 11.857,8.546 12.658,8.716L13.332,7.177L13.187,6.137C13.187,6.137 13.867,5.935 13.906,5.527L13.907,5.527Z" style="fill:rgb(213,179,184);fill-rule:nonzero;"/>
            <path id="Path41" serif:id="Path" d="M13.89,5.484C13.89,5.484 13.996,5.547 13.964,5.947C13.932,6.348 13.785,6.641 13.785,6.641C13.785,6.641 13.776,5.564 13.889,5.484L13.89,5.484Z" style="fill:rgb(61,11,2);fill-rule:nonzero;"/>
            <path id="Path42" serif:id="Path" d="M14.063,7.518C14.063,7.528 12.77,8.26 12.77,8.26C12.77,8.26 12.667,6.947 12.798,6.832C12.831,6.803 12.88,6.749 12.934,6.685C13.097,6.492 13.313,6.205 13.313,6.205C13.313,6.205 13.399,6.225 13.505,6.253C13.669,6.297 13.883,6.36 13.907,6.401C13.947,6.469 14.059,7.512 14.063,7.519L14.063,7.518Z" style="fill:rgb(255,232,145);fill-rule:nonzero;"/>
            <path id="Path43" serif:id="Path" d="M14.916,7.288C14.916,7.288 15.229,6.967 15.245,6.907C15.261,6.847 15.301,6.467 15.332,6.506C15.364,6.546 15.388,6.72 15.403,6.736C15.419,6.752 15.641,6.637 15.708,6.641C15.775,6.645 16.136,6.641 16.176,6.661C16.216,6.681 15.549,6.951 15.525,7.006C15.501,7.062 15.188,7.657 15.188,7.657C15.188,7.657 14.982,7.486 14.914,7.288L14.916,7.288Z" style="fill:rgb(243,51,51);fill-rule:nonzero;"/>
            <path id="Path44" serif:id="Path" d="M13.677,6.641C13.572,6.705 13.234,6.537 13.207,6.761C13.18,6.985 13.069,7.007 13.048,6.977C13.038,6.962 12.985,6.826 12.934,6.685C13.097,6.492 13.313,6.205 13.313,6.205C13.313,6.205 13.399,6.225 13.505,6.253C13.642,6.36 13.749,6.454 13.749,6.454C13.749,6.454 13.782,6.578 13.677,6.643L13.677,6.641Z" style="fill:rgb(90,30,51);fill-rule:nonzero;"/>
            <path id="Path45" serif:id="Path" d="M14.987,7.308C14.987,7.308 14.578,7.82 14.555,7.824C14.531,7.828 14.229,6.58 14.15,6.504C14.055,6.413 13.837,6.364 13.837,6.364L13.988,7.447C13.988,7.447 14.324,8.359 14.615,8.359C14.671,8.359 15.21,7.474 15.21,7.474C15.21,7.474 15.095,7.288 14.988,7.307L14.987,7.308Z" style="fill:rgb(255,232,145);fill-rule:nonzero;"/>
            <path id="Path46" serif:id="Path" d="M14.595,11.655C14.554,11.822 14.511,11.934 14.398,12.017C14.246,12.13 13.967,12.189 13.397,12.262C12.406,12.389 12.834,13.262 12.262,13.372C10.896,13.637 11.754,14.594 11.048,14.927C10.253,15.303 9.682,15.338 9.273,15.197C8.255,14.847 8.239,13.404 8.239,13.404C11.357,12.404 12.19,10.215 12.529,9.084C12.537,9.058 12.544,9.032 12.551,9.006C12.579,8.908 12.602,8.811 12.622,8.716C12.623,8.713 12.623,8.709 12.624,8.706C12.629,8.68 12.634,8.654 12.639,8.629C12.661,8.513 12.677,8.4 12.689,8.291C12.695,8.239 12.699,8.188 12.703,8.138C12.755,7.454 12.649,6.948 12.671,6.843C12.703,6.692 13.048,6.406 13.082,6.503C13.277,7.056 13.785,7.275 13.785,7.275C13.908,7.152 13.837,6.327 13.837,6.327C13.928,6.256 14.274,7.16 14.285,7.319C14.292,7.414 14.193,7.506 14.093,7.699C14.045,7.792 13.997,7.908 13.96,8.059C13.946,8.115 13.934,8.176 13.924,8.242C13.92,8.268 13.916,8.294 13.914,8.32C13.907,8.369 13.901,8.418 13.897,8.466C13.697,10.349 14.595,11.654 14.595,11.654L14.595,11.655Z" style="fill:rgb(181,234,215);fill-rule:nonzero;"/>
            <path id="Path47" serif:id="Path" d="M12.363,8.371C12.363,8.371 12.248,8.006 12.242,7.953C12.238,7.914 12.747,7.51 12.834,7.401C12.942,7.267 13.004,7.068 12.869,6.886C12.734,6.705 12.485,7.082 12.435,7.154C12.384,7.225 11.831,7.877 11.852,7.987C11.873,8.097 12.182,8.594 12.182,8.594C12.182,8.594 12.339,8.458 12.363,8.372L12.363,8.371Z" style="fill:rgb(255,232,145);fill-rule:nonzero;"/>
            <path id="Path48" serif:id="Path" d="M13.96,8.06C13.946,8.116 13.934,8.177 13.924,8.243C13.92,8.269 13.916,8.295 13.914,8.321C13.91,8.323 13.906,8.326 13.902,8.328C13.691,8.451 13.278,8.584 12.689,8.291C12.695,8.239 12.699,8.188 12.703,8.138C12.746,8.16 13.091,8.325 13.44,8.304C13.604,8.295 13.769,8.244 13.903,8.119C13.923,8.101 13.942,8.081 13.96,8.059L13.96,8.06Z" style="fill:rgb(140,208,197);fill-rule:nonzero;"/>
            <path id="Path49" serif:id="Path" d="M12.628,8.728C12.625,8.725 12.623,8.721 12.623,8.717C12.622,8.714 12.623,8.71 12.625,8.707C12.63,8.681 12.635,8.655 12.64,8.63C12.572,8.642 12.509,8.65 12.496,8.634C12.466,8.597 12.388,8.371 12.388,8.371C12.245,8.305 12.073,8.545 12.067,8.552C12.067,8.552 12.218,8.706 12.272,8.748C12.326,8.791 12.472,8.996 12.543,9.006C12.546,9.006 12.549,9.007 12.552,9.007C12.625,9.013 12.753,8.968 12.778,8.948C12.804,8.927 12.99,8.988 12.993,8.954C12.995,8.92 12.673,8.778 12.628,8.728Z" style="fill:rgb(243,51,51);fill-rule:nonzero;"/>
            <path id="Path50" serif:id="Path" d="M13.886,5.839C13.883,5.941 13.874,6.054 13.855,6.139C13.809,6.344 13.741,6.521 13.661,6.538C13.545,6.562 13.201,6.177 13.201,6.177C13.201,6.177 13.026,5.628 13.231,5.556C13.431,5.486 13.847,5.433 13.886,5.561C13.887,5.564 13.888,5.567 13.888,5.57C13.888,5.57 13.893,5.695 13.887,5.839L13.886,5.839Z" style="fill:rgb(255,232,145);fill-rule:nonzero;"/>
            <path id="Path51" serif:id="Path" d="M13.886,5.839C13.799,5.994 13.576,6.051 13.472,6.072C13.341,6.098 13.304,6.227 13.304,6.227C13.216,6.129 13.666,5.508 13.666,5.508C13.666,5.508 13.813,5.47 13.885,5.561C13.886,5.564 13.887,5.567 13.887,5.57C13.887,5.57 13.892,5.695 13.886,5.839Z" style="fill:rgb(90,30,51);fill-rule:nonzero;"/>
            <path id="Path52" serif:id="Path" d="M13.907,5.527C13.907,5.527 13.883,5.827 13.618,5.952C13.353,6.077 13.285,6.172 13.27,6.413C13.255,6.654 12.949,6.928 12.529,6.934L13.169,5.467L13.583,5.393C13.583,5.393 13.898,5.402 13.907,5.527Z" style="fill:rgb(213,179,184);fill-rule:nonzero;"/>
            <path id="Path53" serif:id="Path" d="M14.398,12.017C14.246,12.13 13.967,12.189 13.397,12.262C12.406,12.389 12.834,13.262 12.262,13.372C10.896,13.637 11.754,14.594 11.048,14.927C10.253,15.303 9.682,15.338 9.273,15.197C9.273,15.197 10.974,15.075 11.183,14.007C11.392,12.938 11.658,12.919 11.99,12.267C12.322,11.615 13.179,11.702 13.256,10.66C13.323,9.75 13.327,9.375 13.327,9.294C13.327,9.538 13.351,12.302 14.398,12.017Z" style="fill:rgb(140,208,197);fill-rule:nonzero;"/>
            <path id="Path54" serif:id="Path" d="M14.093,7.7C14.045,7.793 13.997,7.909 13.96,8.06C13.942,8.082 13.923,8.102 13.903,8.12C13.9,7.981 13.887,7.858 13.849,7.88C13.577,8.044 13.465,7.8 13.46,7.789C13.628,7.894 13.836,7.747 13.836,7.747C13.951,7.863 14.092,7.7 14.092,7.7L14.093,7.7Z" style="fill:rgb(140,208,197);fill-rule:nonzero;"/>
            <path id="Path55" serif:id="Path" d="M13.991,8.321C13.953,8.37 13.919,8.419 13.897,8.467L13.897,8.468C13.897,8.468 13.914,8.409 13.93,8.328C13.953,8.326 13.975,8.323 13.997,8.321L13.991,8.321Z" style="fill:rgb(106,218,233);fill-rule:nonzero;"/>
            <path id="Path56" serif:id="Path" d="M14.002,8.06C13.978,8.116 13.957,8.177 13.94,8.243C13.933,8.269 13.926,8.295 13.923,8.321C13.916,8.323 13.909,8.326 13.902,8.328C13.905,8.266 13.907,8.191 13.904,8.12C13.938,8.102 13.971,8.082 14.002,8.06Z" style="fill:rgb(110,101,83);fill-rule:nonzero;"/>
            <path id="Path57" serif:id="Path" d="M13.64,6.315C13.64,6.315 13.713,6.345 13.754,6.296C13.754,6.296 13.734,6.396 13.708,6.396C13.682,6.396 13.667,6.38 13.64,6.315Z" style="fill:rgb(90,30,51);fill-rule:nonzero;"/>
            <path id="Path58" serif:id="Path" d="M19.704,12.482C19.485,12.609 19.129,12.609 18.91,12.482C18.691,12.355 18.691,12.15 18.91,12.024C19.129,11.897 19.485,11.897 19.704,12.024C19.923,12.151 19.923,12.356 19.704,12.482Z" style="fill:rgb(96,147,168);fill-rule:nonzero;"/>
            <path id="Path59" serif:id="Path" d="M19.704,12.412C19.485,12.539 19.129,12.539 18.91,12.412C18.691,12.285 18.691,12.08 18.91,11.954C19.129,11.827 19.485,11.827 19.704,11.954C19.923,12.081 19.923,12.286 19.704,12.412Z" style="fill:rgb(209,223,230);fill-rule:nonzero;"/>
            <path id="Path60" serif:id="Path" d="M12.286,16.792C12.067,16.919 11.711,16.919 11.492,16.792C11.273,16.665 11.273,16.46 11.492,16.334C11.711,16.207 12.067,16.207 12.286,16.334C12.505,16.461 12.505,16.666 12.286,16.792Z" style="fill:rgb(121,121,33);fill-rule:nonzero;"/>
            <path id="Path61" serif:id="Path" d="M12.286,16.722C12.067,16.849 11.711,16.849 11.492,16.722C11.273,16.595 11.273,16.39 11.492,16.264C11.711,16.137 12.067,16.137 12.286,16.264C12.505,16.391 12.505,16.596 12.286,16.722Z" style="fill:rgb(209,223,230);fill-rule:nonzero;"/>
            <path id="Path62" serif:id="Path" d="M11.889,16.51C11.822,16.51 11.767,16.455 11.767,16.388L11.767,14.007C11.767,13.94 11.822,13.885 11.889,13.885C11.956,13.885 12.011,13.94 12.011,14.007L12.011,16.388C12.011,16.455 11.956,16.51 11.889,16.51Z" style="fill:rgb(96,147,168);fill-rule:nonzero;"/>
            <path id="Path63" serif:id="Path" d="M12.303,14.007C12.303,14.236 12.117,14.422 11.888,14.422C11.659,14.422 11.473,14.236 11.473,14.007C11.473,13.977 11.476,13.948 11.482,13.92C11.522,13.733 11.689,13.592 11.888,13.592C12.087,13.592 12.254,13.732 12.294,13.92C12.3,13.948 12.303,13.977 12.303,14.007Z" style="fill:rgb(176,199,210);fill-rule:nonzero;"/>
            <path id="Path64" serif:id="Path" d="M12.294,13.92C12.254,14.107 12.087,14.248 11.888,14.248C11.689,14.248 11.522,14.108 11.482,13.92C11.522,13.733 11.689,13.592 11.888,13.592C12.087,13.592 12.254,13.732 12.294,13.92Z" style="fill:rgb(244,248,250);fill-rule:nonzero;"/>
            <path id="Path65" serif:id="Path" d="M19.307,12.2C19.24,12.2 19.185,12.145 19.185,12.078L19.185,9.697C19.185,9.63 19.24,9.575 19.307,9.575C19.374,9.575 19.429,9.63 19.429,9.697L19.429,12.078C19.429,12.145 19.374,12.2 19.307,12.2Z" style="fill:rgb(96,147,168);fill-rule:nonzero;"/>
            <path id="Path66" serif:id="Path" d="M19.722,9.697C19.722,9.926 19.536,10.112 19.307,10.112C19.078,10.112 18.892,9.926 18.892,9.697C18.892,9.667 18.895,9.638 18.901,9.61C18.941,9.423 19.108,9.282 19.307,9.282C19.506,9.282 19.673,9.422 19.713,9.61C19.719,9.638 19.722,9.667 19.722,9.697Z" style="fill:rgb(176,199,210);fill-rule:nonzero;"/>
            <path id="Path67" serif:id="Path" d="M19.713,9.61C19.673,9.797 19.506,9.938 19.307,9.938C19.108,9.938 18.941,9.798 18.901,9.61C18.941,9.423 19.108,9.282 19.307,9.282C19.506,9.282 19.673,9.422 19.713,9.61Z" style="fill:rgb(244,248,250);fill-rule:nonzero;"/>
            <path id="Path68" serif:id="Path" d="M17.252,11.543L19.307,10.356L19.307,10.888L17.252,12.071L17.252,11.543Z" style="fill:rgb(243,51,51);fill-rule:nonzero;"/>
            <path id="Path69" serif:id="Path" d="M9.826,15.83L11.889,14.639L11.889,15.167L9.826,16.358L9.826,15.83Z" style="fill:rgb(243,51,51);fill-rule:nonzero;"/>
            <path id="Path70" serif:id="Path" d="M17.641,13.713C17.422,13.84 17.066,13.84 16.847,13.713C16.628,13.586 16.628,13.381 16.847,13.255C17.066,13.128 17.422,13.128 17.641,13.255C17.86,13.382 17.86,13.587 17.641,13.713Z" style="fill:rgb(96,147,168);fill-rule:nonzero;"/>
            <path id="Path71" serif:id="Path" d="M17.641,13.643C17.422,13.77 17.066,13.77 16.847,13.643C16.628,13.516 16.628,13.311 16.847,13.185C17.066,13.058 17.422,13.058 17.641,13.185C17.86,13.312 17.86,13.517 17.641,13.643Z" style="fill:rgb(209,223,230);fill-rule:nonzero;"/>
            <path id="Path72" serif:id="Path" d="M17.244,13.431C17.177,13.431 17.122,13.376 17.122,13.309L17.122,10.928C17.122,10.861 17.177,10.806 17.244,10.806C17.311,10.806 17.366,10.861 17.366,10.928L17.366,13.309C17.366,13.376 17.311,13.431 17.244,13.431Z" style="fill:rgb(96,147,168);fill-rule:nonzero;"/>
            <path id="Path73" serif:id="Path" d="M17.659,10.928C17.659,11.157 17.473,11.343 17.244,11.343C17.015,11.343 16.829,11.157 16.829,10.928C16.829,10.898 16.832,10.869 16.838,10.841C16.878,10.654 17.045,10.513 17.244,10.513C17.443,10.513 17.61,10.653 17.65,10.841C17.656,10.869 17.659,10.898 17.659,10.928Z" style="fill:rgb(176,199,210);fill-rule:nonzero;"/>
            <path id="Path74" serif:id="Path" d="M17.65,10.841C17.61,11.028 17.443,11.169 17.244,11.169C17.045,11.169 16.878,11.029 16.838,10.841C16.878,10.654 17.045,10.513 17.244,10.513C17.443,10.513 17.61,10.653 17.65,10.841Z" style="fill:rgb(245,247,248);fill-rule:nonzero;"/>
            <path id="Path75" serif:id="Path" d="M10.223,18.023C10.004,18.15 9.648,18.15 9.429,18.023C9.21,17.896 9.21,17.691 9.429,17.565C9.648,17.438 10.004,17.438 10.223,17.565C10.442,17.692 10.442,17.897 10.223,18.023Z" style="fill:rgb(121,121,33);fill-rule:nonzero;"/>
            <path id="Path76" serif:id="Path" d="M10.223,17.953C10.004,18.08 9.648,18.08 9.429,17.953C9.21,17.826 9.21,17.621 9.429,17.495C9.648,17.368 10.004,17.368 10.223,17.495C10.442,17.622 10.442,17.827 10.223,17.953Z" style="fill:rgb(209,223,230);fill-rule:nonzero;"/>
            <path id="Path77" serif:id="Path" d="M9.826,17.741C9.759,17.741 9.704,17.686 9.704,17.619L9.704,15.238C9.704,15.171 9.759,15.116 9.826,15.116C9.893,15.116 9.948,15.171 9.948,15.238L9.948,17.619C9.948,17.686 9.893,17.741 9.826,17.741Z" style="fill:rgb(96,147,168);fill-rule:nonzero;"/>
            <path id="Path78" serif:id="Path" d="M10.241,15.238C10.241,15.467 10.055,15.653 9.826,15.653C9.597,15.653 9.411,15.467 9.411,15.238C9.411,15.208 9.414,15.179 9.42,15.151C9.46,14.964 9.627,14.823 9.826,14.823C10.025,14.823 10.192,14.963 10.232,15.151C10.238,15.179 10.241,15.208 10.241,15.238Z" style="fill:rgb(176,199,210);fill-rule:nonzero;"/>
            <path id="Path79" serif:id="Path" d="M10.232,15.151C10.192,15.338 10.025,15.479 9.826,15.479C9.627,15.479 9.46,15.339 9.42,15.151C9.46,14.964 9.627,14.823 9.826,14.823C10.025,14.823 10.192,14.963 10.232,15.151Z" style="fill:rgb(244,248,250);fill-rule:nonzero;"/>
            <path id="Path80" serif:id="Path" d="M13.507,20.479C12.85,20.858 11.784,20.858 11.127,20.479C10.47,20.1 10.47,19.484 11.127,19.105C11.784,18.726 12.85,18.726 13.507,19.105C14.164,19.484 14.164,20.1 13.507,20.479Z" style="fill:rgb(209,223,230);fill-rule:nonzero;"/>
            <path id="Path81" serif:id="Path" d="M13.725,12.064L13.956,11.929C13.956,11.929 14.168,11.88 14.181,12.172L13.953,12.371L13.725,12.065L13.725,12.064Z" style="fill:rgb(65,33,153);fill-rule:nonzero;"/>
            <path id="Path82" serif:id="Path" d="M13.482,12.15L13.796,11.966C13.796,11.966 14.14,11.945 14.102,12.297L13.792,12.567L13.482,12.15Z" style="fill:rgb(96,147,168);fill-rule:nonzero;"/>
            <path id="Path83" serif:id="Path" d="M13.256,12.053L14.031,12.386L13.988,12.835L13.288,12.525L13.256,12.053Z" style="fill:rgb(159,193,208);fill-rule:nonzero;"/>
            <path id="Path84" serif:id="Path" d="M13.178,12.095L13.953,12.429L13.91,12.877L13.211,12.567L13.178,12.095Z" style="fill:rgb(96,147,168);fill-rule:nonzero;"/>
            <path id="Path85" serif:id="Path" d="M13.276,12.215L13.813,12.446L13.783,12.757L13.298,12.542L13.276,12.215Z" style="fill:rgb(103,103,103);fill-rule:nonzero;"/>
            <path id="Path86" serif:id="Path" d="M11.88,19.109C11.88,19.109 11.948,19.362 12.044,19.366C12.14,19.37 12.186,19.349 12.179,19.395C12.172,19.441 12.069,19.69 11.916,19.635C11.763,19.58 11.681,19.85 11.568,19.833C11.454,19.816 11.422,19.745 11.426,19.724C11.43,19.703 11.586,19.004 11.586,19.004L11.881,19.109L11.88,19.109Z" style="fill:rgb(171,201,102);fill-rule:nonzero;"/>
            <path id="Path87" serif:id="Path" d="M13.093,19.643C13.093,19.643 13.132,19.811 13.189,19.816C13.246,19.82 13.338,19.808 13.36,19.862C13.381,19.917 12.949,20.268 12.748,20.228C12.663,20.211 12.599,20.182 12.616,20.14C12.634,20.098 12.833,19.551 12.833,19.551L13.093,19.644L13.093,19.643Z" style="fill:rgb(171,201,102);fill-rule:nonzero;"/>
            <path id="Path88" serif:id="Path" d="M11.742,15.426C11.742,15.426 11.621,15.872 11.671,15.965C11.721,16.058 11.92,17.421 11.863,17.623C11.806,17.825 11.458,19.189 11.458,19.189C11.458,19.189 11.785,19.416 11.97,19.189C11.97,19.189 12.454,17.8 12.475,17.606C12.496,17.412 12.525,16.276 12.525,16.276L12.525,15.501L11.743,15.425L11.742,15.426Z" style="fill:rgb(77,53,113);fill-rule:nonzero;"/>
            <path id="Path89" serif:id="Path" d="M12.225,15.821C12.225,15.821 12.189,16.234 12.225,16.292C12.261,16.351 12.972,17.816 13.007,18.001C13.043,18.186 12.652,19.609 12.652,19.609C12.652,19.609 12.808,19.912 13.163,19.735C13.163,19.735 13.654,18.304 13.661,18.093C13.668,17.883 13.227,16.334 13.249,16.224C13.27,16.115 13.285,15.727 13.285,15.727C13.285,15.727 12.238,15.402 12.226,15.82L12.225,15.821Z" style="fill:rgb(112,121,243);fill-rule:nonzero;"/>
            <path id="Path90" serif:id="Path" d="M13.325,12.861C13.325,12.861 13.259,12.835 13.238,12.89C13.217,12.944 13.151,13.141 13.151,13.141L13.044,13.115L12.658,13.022L12.788,12.614L13.098,12.411C13.098,12.411 13.198,12.532 13.267,12.657C13.307,12.732 13.337,12.808 13.326,12.86L13.325,12.861Z" style="fill:rgb(255,232,145);fill-rule:nonzero;"/>
            <path id="Path91" serif:id="Path" d="M13.325,12.861C13.325,12.861 13.259,12.835 13.238,12.89C13.217,12.944 13.151,13.141 13.151,13.141L13.044,13.115C13.058,13.085 13.089,13.029 13.151,12.944C13.249,12.81 13.197,12.67 13.197,12.67C13.22,12.656 13.244,12.652 13.267,12.657C13.307,12.732 13.337,12.808 13.326,12.86L13.325,12.861Z" style="fill:rgb(90,30,51);fill-rule:nonzero;"/>
            <path id="Path92" serif:id="Path" d="M12.55,13.141C12.55,13.134 12.597,12.949 12.621,12.944C12.645,12.939 13.259,13.044 13.273,13.058C13.287,13.072 13.247,13.252 13.247,13.252L12.55,13.141Z" style="fill:rgb(202,6,46);fill-rule:nonzero;"/>
            <path id="Path93" serif:id="Path" d="M13.686,13.815C13.641,14.516 13.488,15.898 13.488,15.898C13.488,15.898 13.151,15.989 12.735,15.964C12.358,15.941 11.917,15.823 11.606,15.452C11.606,15.452 11.981,13.224 12.113,13.141C12.246,13.058 12.836,13.105 12.991,13.141C13.146,13.177 13.62,13.328 13.687,13.418C13.703,13.44 13.7,13.593 13.686,13.814L13.686,13.815Z" style="fill:rgb(49,151,135);fill-rule:nonzero;"/>
            <path id="Path94" serif:id="Path" d="M13.686,13.815C13.641,14.516 13.488,15.898 13.488,15.898C13.488,15.898 13.151,15.989 12.735,15.964C13.049,15.869 13.518,14.384 13.275,14.106C13.024,13.819 13.236,13.465 13.236,13.465C13.236,13.465 13.298,13.753 13.686,13.814L13.686,13.815Z" style="fill:rgb(16,84,73);fill-rule:nonzero;"/>
            <path id="Path95" serif:id="Path" d="M13.924,13.082C13.924,13.082 13.491,12.811 13.53,12.776C13.569,12.741 13.758,12.841 13.786,12.826C13.814,12.812 13.882,12.424 13.861,12.371C13.84,12.318 13.694,12.13 13.747,12.151C13.8,12.172 14.081,12.378 14.117,12.463C14.153,12.548 14.138,12.876 14.138,12.876C14.138,12.876 13.967,13.089 13.924,13.082Z" style="fill:rgb(255,232,145);fill-rule:nonzero;"/>
            <path id="Path96" serif:id="Path" d="M14.65,14.26C14.483,14.26 13.566,14.146 13.455,14.128C13.345,14.11 13.109,13.994 13.178,13.623C13.247,13.252 13.559,13.353 13.643,13.38C13.692,13.396 13.793,13.444 13.871,13.479L13.883,13.484C13.933,13.506 13.971,13.52 13.975,13.513C13.986,13.495 13.795,13.126 13.795,13.126C13.795,13.126 13.824,13.043 13.889,12.944C13.956,12.843 14.062,12.727 14.214,12.67C14.214,12.67 14.826,13.925 14.843,14.046C14.861,14.167 14.818,14.26 14.651,14.26L14.65,14.26Z" style="fill:rgb(49,151,135);fill-rule:nonzero;"/>
            <path id="Path97" serif:id="Path" d="M13.975,13.513C13.986,13.495 13.795,13.126 13.795,13.126C13.795,13.126 13.824,13.043 13.889,12.944C13.889,12.944 13.824,13.058 13.954,13.274C14.08,13.484 14.259,13.651 14.269,13.661L13.883,13.484C13.933,13.506 13.971,13.52 13.975,13.513Z" style="fill:rgb(16,84,73);fill-rule:nonzero;"/>
            <path id="Path98" serif:id="Path" d="M13.303,12.009C13.303,12.009 13.39,12.361 13.397,12.425C13.404,12.489 13.435,12.48 13.425,12.508C13.416,12.536 13.399,12.563 13.404,12.593C13.409,12.624 13.388,12.861 13.365,12.875C13.342,12.889 13.217,12.792 13.169,12.579L12.816,12.517C12.816,12.517 13.01,11.929 13.055,11.929C13.1,11.929 13.276,11.896 13.303,12.008L13.303,12.009Z" style="fill:rgb(255,232,145);fill-rule:nonzero;"/>
            <path id="Path99" serif:id="Path" d="M13.176,12.364C13.176,12.364 13.167,12.241 13.074,12.243C12.982,12.245 13.069,12.516 13.159,12.523L12.962,12.758C12.962,12.758 12.816,12.714 12.735,12.778C12.735,12.778 12.317,12.763 12.327,12.261C12.336,11.759 12.794,11.616 12.87,11.671C12.87,11.671 12.936,11.517 12.955,11.552C12.974,11.588 12.948,11.621 12.976,11.618C13.004,11.616 13.083,11.482 13.213,11.546C13.343,11.611 13.412,11.947 13.341,12.172C13.341,12.172 13.308,12.103 13.296,12.11C13.296,12.11 13.301,12.252 13.22,12.226C13.168,12.209 13.175,12.363 13.175,12.363L13.176,12.364Z" style="fill:rgb(136,68,0);fill-rule:nonzero;"/>
            <path id="Path100" serif:id="Path" d="M24.444,19.537L24.235,19.657L22.457,20.683C22.348,20.746 22.214,20.746 22.106,20.683L20.328,19.657L20.119,19.536C20.064,19.504 20.064,19.425 20.119,19.394L20.284,19.299L22.106,18.247C22.214,18.184 22.349,18.184 22.457,18.247L24.279,19.299L24.444,19.394C24.499,19.426 24.499,19.505 24.444,19.537Z" style="fill:rgb(96,147,168);fill-rule:nonzero;"/>
            <path id="Path101" serif:id="Path" d="M24.235,19.657L22.457,20.683C22.348,20.746 22.214,20.746 22.106,20.683L20.328,19.657L22.106,18.63C22.214,18.567 22.349,18.567 22.457,18.63L24.235,19.657Z" style="fill:rgb(209,223,230);fill-rule:nonzero;"/>
            <path id="Path102" serif:id="Path" d="M24.444,17.69L24.235,17.81L22.457,18.836C22.348,18.899 22.214,18.899 22.106,18.836L20.328,17.81L20.119,17.689C20.064,17.657 20.064,17.578 20.119,17.547L22.106,16.4C22.214,16.337 22.349,16.337 22.457,16.4L24.444,17.547C24.499,17.579 24.499,17.658 24.444,17.69Z" style="fill:rgb(96,147,168);fill-rule:nonzero;"/>
            <path id="Path103" serif:id="Path" d="M24.027,17.572L23.859,17.669L22.423,18.498C22.335,18.549 22.227,18.549 22.139,18.498L20.703,17.669L20.535,17.572C20.491,17.546 20.491,17.483 20.535,17.457L22.139,16.531C22.226,16.48 22.335,16.48 22.423,16.531L24.027,17.457C24.071,17.483 24.071,17.546 24.027,17.572Z" style="fill:rgb(209,223,230);fill-rule:nonzero;"/>
            <path id="Path104" serif:id="Path" d="M24.027,17.502L23.859,17.599L22.423,18.428C22.335,18.479 22.227,18.479 22.139,18.428L20.703,17.599L20.535,17.502C20.491,17.476 20.491,17.413 20.535,17.387L22.139,16.461C22.226,16.41 22.335,16.41 22.423,16.461L24.027,17.387C24.071,17.413 24.071,17.476 24.027,17.502Z" style="fill:rgb(245,247,248);fill-rule:nonzero;"/>
            <path id="Path105" serif:id="Path" d="M17.197,8.562C16.798,8.624 16.493,8.969 16.493,9.385C16.493,8.969 16.188,8.624 15.789,8.562C16.188,8.5 16.493,8.155 16.493,7.739C16.493,8.155 16.799,8.5 17.197,8.562Z" style="fill:rgb(255,242,57);fill-rule:nonzero;"/>
            <path id="Path106" serif:id="Path" d="M15.538,5.523C15.352,5.552 15.21,5.713 15.21,5.907C15.21,5.793 15.161,5.691 15.084,5.62C15.029,5.57 14.959,5.535 14.882,5.523C15.068,5.494 15.21,5.333 15.21,5.139C15.21,5.333 15.352,5.494 15.538,5.523Z" style="fill:rgb(255,242,57);fill-rule:nonzero;"/>
            <path id="Path107" serif:id="Path" d="M13.604,5.14C13.418,5.169 13.276,5.33 13.276,5.524C13.276,5.33 13.134,5.169 12.948,5.14C13.134,5.111 13.276,4.95 13.276,4.756C13.276,4.95 13.418,5.111 13.604,5.14Z" style="fill:rgb(255,242,57);fill-rule:nonzero;"/>
            <path id="Path108" serif:id="Path" d="M12.819,3.99C12.505,4.039 12.265,4.31 12.265,4.638C12.265,4.311 12.025,4.039 11.711,3.99C12.025,3.941 12.265,3.67 12.265,3.342C12.265,3.669 12.505,3.941 12.819,3.99Z" style="fill:rgb(255,242,57);fill-rule:nonzero;"/>
            <path id="Path109" serif:id="Path" d="M14.298,3.683C14.112,3.712 13.97,3.873 13.97,4.067C13.97,3.873 13.828,3.712 13.642,3.683C13.747,3.667 13.837,3.609 13.897,3.526C13.943,3.462 13.97,3.384 13.97,3.299C13.97,3.493 14.112,3.654 14.298,3.683Z" style="fill:rgb(255,242,57);fill-rule:nonzero;"/>
            <path id="Path110" serif:id="Path" d="M19.099,4.402L18.835,4.216C18.831,4.213 18.828,4.208 18.827,4.203L18.773,3.839C18.772,3.83 18.765,3.823 18.76,3.825L18.741,3.832L18.742,3.842L18.75,3.841L18.647,4.076C18.645,4.08 18.642,4.08 18.638,4.077L18.374,3.891C18.372,3.889 18.37,3.889 18.368,3.89L18.349,3.897L18.362,3.914L18.37,3.913L18.563,4.247C18.566,4.252 18.567,4.258 18.565,4.261L18.455,4.51C18.452,4.518 18.46,4.533 18.467,4.531L18.698,4.492C18.701,4.491 18.705,4.494 18.708,4.499L18.897,4.826L18.894,4.826L18.897,4.854L18.916,4.846C18.918,4.845 18.92,4.842 18.919,4.837L18.865,4.473C18.864,4.468 18.866,4.464 18.869,4.463L19.083,4.427L19.082,4.431L19.101,4.424C19.108,4.422 19.105,4.407 19.097,4.402L19.099,4.402Z" style="fill:rgb(59,57,0);fill-rule:nonzero;"/>
            <path id="Path111" serif:id="Path" d="M16.585,3.895L16.323,3.442C16.319,3.436 16.318,3.426 16.321,3.417L16.489,2.846C16.493,2.832 16.487,2.817 16.479,2.816L16.446,2.814L16.441,2.83L16.454,2.834L16.143,3.109C16.138,3.113 16.133,3.112 16.129,3.105L15.867,2.652C15.865,2.648 15.862,2.646 15.859,2.646L15.827,2.644L15.835,2.679L15.848,2.683L15.905,3.304C15.906,3.313 15.903,3.322 15.898,3.326L15.568,3.617C15.557,3.626 15.56,3.653 15.572,3.657L15.937,3.757C15.942,3.758 15.946,3.766 15.947,3.775L16.003,4.383L15.999,4.381L15.984,4.424L16.017,4.426C16.021,4.426 16.026,4.423 16.028,4.415L16.196,3.844C16.198,3.836 16.204,3.831 16.209,3.833L16.548,3.926L16.543,3.931L16.576,3.933C16.587,3.934 16.593,3.911 16.585,3.897L16.585,3.895Z" style="fill:rgb(59,57,0);fill-rule:nonzero;"/>
            <path id="Path112" serif:id="Path" d="M19.17,5.713L18.152,5.125C18.137,5.117 18.125,5.098 18.12,5.08L17.806,3.781C17.798,3.749 17.77,3.727 17.753,3.732L17.686,3.765L17.695,3.802L17.725,3.796L17.428,4.68C17.424,4.693 17.411,4.697 17.396,4.688L16.378,4.1C16.369,4.095 16.361,4.094 16.355,4.098L16.29,4.131L16.344,4.19L16.374,4.183L17.181,5.326C17.193,5.343 17.198,5.363 17.193,5.376L16.879,6.312C16.869,6.342 16.904,6.392 16.931,6.385L17.754,6.17C17.766,6.167 17.782,6.176 17.793,6.193L18.584,7.313L18.574,7.313L18.592,7.413L18.659,7.379C18.667,7.374 18.672,7.363 18.667,7.345L18.353,6.046C18.349,6.027 18.353,6.013 18.365,6.01L19.129,5.81L19.125,5.826L19.191,5.793L19.19,5.793C19.212,5.783 19.199,5.731 19.168,5.713L19.17,5.713Z" style="fill:rgb(59,57,0);fill-rule:nonzero;"/>
            <path id="Path113" serif:id="Path" d="M17.739,3.815L18.053,5.114C18.057,5.133 18.07,5.151 18.085,5.159L19.103,5.747C19.135,5.766 19.149,5.822 19.123,5.828L18.3,6.043C18.288,6.046 18.283,6.061 18.288,6.079L18.602,7.378C18.612,7.419 18.577,7.429 18.55,7.392L17.727,6.226C17.715,6.209 17.699,6.2 17.688,6.203L16.865,6.418C16.839,6.425 16.803,6.375 16.813,6.345L17.127,5.409C17.131,5.396 17.127,5.375 17.115,5.359L16.292,4.193C16.266,4.156 16.279,4.116 16.312,4.134L17.33,4.722C17.345,4.73 17.357,4.727 17.362,4.714L17.676,3.778C17.686,3.748 17.73,3.773 17.74,3.815L17.739,3.815Z" style="fill:rgb(139,79,243);fill-rule:nonzero;"/>
            <path id="Path114" serif:id="Path" d="M18.755,3.846L18.809,4.21C18.81,4.215 18.813,4.221 18.817,4.223L19.081,4.409C19.089,4.415 19.092,4.431 19.084,4.432L18.853,4.471C18.85,4.472 18.848,4.475 18.849,4.481L18.903,4.845C18.905,4.857 18.895,4.858 18.889,4.847L18.692,4.507C18.689,4.502 18.685,4.499 18.682,4.5L18.451,4.539C18.444,4.54 18.435,4.526 18.439,4.518L18.549,4.269C18.551,4.265 18.55,4.26 18.547,4.255L18.35,3.915C18.344,3.904 18.348,3.893 18.357,3.899L18.621,4.085C18.625,4.088 18.628,4.087 18.63,4.084L18.74,3.835C18.744,3.827 18.755,3.835 18.757,3.847L18.755,3.846Z" style="fill:rgb(255,167,138);fill-rule:nonzero;"/>
            <path id="Path115" serif:id="Path" d="M19.108,2.314L18.558,1.679C18.55,1.67 18.546,1.655 18.547,1.641L18.639,0.69C18.641,0.666 18.627,0.645 18.615,0.645L18.615,0.644L18.562,0.651L18.559,0.678L18.581,0.681L18.173,1.209C18.167,1.217 18.157,1.216 18.149,1.207L17.599,0.572C17.594,0.566 17.589,0.565 17.584,0.565L17.584,0.564L17.532,0.571L17.555,0.623L17.577,0.625L17.854,1.587C17.858,1.601 17.857,1.616 17.85,1.624L17.418,2.183C17.404,2.201 17.416,2.243 17.436,2.244L18.043,2.291C18.052,2.292 18.06,2.302 18.064,2.316L18.336,3.258L18.329,3.256L18.318,3.328L18.371,3.321L18.371,3.32C18.378,3.319 18.384,3.313 18.385,3.3L18.477,2.349C18.478,2.335 18.485,2.327 18.494,2.327L19.057,2.371L19.051,2.381L19.103,2.374L19.102,2.373C19.12,2.372 19.123,2.334 19.106,2.314L19.108,2.314Z" style="fill:rgb(59,57,0);fill-rule:nonzero;"/>
            <path id="Path116" serif:id="Path" d="M18.586,0.696L18.494,1.647C18.493,1.661 18.497,1.676 18.505,1.685L19.055,2.32C19.073,2.34 19.069,2.381 19.049,2.38L18.442,2.333C18.433,2.332 18.427,2.341 18.425,2.355L18.333,3.306C18.33,3.336 18.304,3.334 18.295,3.303L18.012,2.322C18.008,2.308 17.999,2.298 17.991,2.297L17.384,2.25C17.365,2.248 17.352,2.206 17.366,2.189L17.798,1.63C17.804,1.622 17.806,1.607 17.802,1.593L17.519,0.612C17.51,0.581 17.529,0.557 17.546,0.577L18.096,1.212C18.104,1.221 18.113,1.222 18.12,1.214L18.552,0.655C18.566,0.637 18.589,0.664 18.586,0.695L18.586,0.696Z" style="fill:rgb(139,79,243);fill-rule:nonzero;"/>
            <path id="Path117" serif:id="Path" d="M16.456,2.844L16.288,3.415C16.286,3.423 16.287,3.433 16.29,3.44L16.552,3.893C16.56,3.907 16.553,3.932 16.541,3.929L16.176,3.829C16.171,3.828 16.166,3.832 16.163,3.84L15.995,4.411C15.99,4.429 15.974,4.425 15.972,4.405L15.914,3.772C15.913,3.763 15.909,3.756 15.904,3.754L15.539,3.654C15.527,3.651 15.525,3.624 15.535,3.614L15.865,3.323C15.87,3.319 15.872,3.31 15.872,3.301L15.814,2.668C15.812,2.648 15.826,2.635 15.835,2.65L16.097,3.103C16.101,3.109 16.106,3.111 16.111,3.107L16.441,2.816C16.452,2.807 16.463,2.826 16.457,2.844L16.456,2.844Z" style="fill:rgb(139,79,243);fill-rule:nonzero;"/>
        </g>
    </g>
</svg>
